<svg width="1035" height="1035" viewBox="0 0 1035 1035" fill="none" xmlns="http://www.w3.org/2000/svg">
<path d="M807.076 633.325C807.076 652.565 804.949 671.328 800.899 689.398C800.795 689.878 800.688 690.352 800.578 690.821L264.621 691.095C264.514 690.623 264.407 690.149 264.3 689.673C260.213 671.514 258.066 652.663 258.066 633.325C258.066 487.159 380.968 368.66 532.576 368.66C684.179 368.66 807.076 487.159 807.076 633.325Z" fill="#F3E9C6"/>
<path d="M430.908 690.76H264.582C262.078 690.76 259.833 689.829 258.146 688.328C255.285 685.84 253.94 681.743 255.332 677.749L255.487 677.299L282.895 598.546C284.209 594.801 287.737 592.297 291.695 592.297H404.307C407.308 592.297 410.044 593.735 411.777 596.058C412.353 596.817 412.796 597.662 413.107 598.593L440.173 677.796C442.356 684.154 437.623 690.76 430.908 690.76Z" fill="#FFC435"/>
<g opacity="0.6">
<path d="M430.908 690.76H264.582C262.078 690.76 259.833 689.829 258.146 688.328C255.285 685.84 253.94 681.743 255.332 677.749L255.487 677.299C258.55 678.416 262.492 679.467 263.977 679.467H417.732C424.198 679.467 428.73 673.078 426.64 666.952L403.671 594.34C403.453 593.675 403.165 593.056 402.807 592.483C403.195 592.406 403.583 592.328 403.935 592.297H404.307C407.308 592.297 410.044 593.735 411.777 596.058C412.353 596.817 412.796 597.662 413.107 598.593L440.173 677.796C442.356 684.154 437.623 690.76 430.908 690.76Z" fill="#E19810"/>
</g>
<path d="M300.339 629.445L292.444 627.211C291.482 626.936 290.918 625.933 291.192 624.965L294.276 614.076C294.55 613.108 295.553 612.549 296.521 612.824L304.415 615.059C305.383 615.333 305.941 616.336 305.667 617.304L302.584 628.193C302.31 629.161 301.306 629.72 300.339 629.445Z" fill="#FDD982"/>
<path d="M288.792 670.22L280.898 667.985C279.93 667.711 279.372 666.707 279.646 665.74L288.844 633.262C289.118 632.295 290.122 631.736 291.089 632.005L298.984 634.245C299.946 634.519 300.51 635.523 300.236 636.49L291.037 668.968C290.763 669.93 289.76 670.494 288.792 670.22Z" fill="#FDD982"/>
<path d="M615.726 690.76H449.4C446.896 690.76 444.651 689.829 442.965 688.328C440.104 685.84 438.759 681.743 440.15 677.749L440.306 677.299L467.714 598.546C469.028 594.801 472.556 592.297 476.513 592.297H589.125C592.126 592.297 594.863 593.735 596.596 596.058C597.172 596.817 597.615 597.662 597.925 598.593L624.992 677.796C627.175 684.154 622.441 690.76 615.726 690.76Z" fill="#FFC435"/>
<g opacity="0.6">
<path d="M615.726 690.76H449.4C446.896 690.76 444.651 689.829 442.965 688.328C440.104 685.84 438.759 681.743 440.15 677.749L440.306 677.299C443.368 678.416 447.315 679.467 448.8 679.467H602.55C609.017 679.467 613.548 673.078 611.458 666.952L588.494 594.34C588.273 593.675 587.984 593.056 587.625 592.483C588.013 592.406 588.401 592.328 588.753 592.297H589.125C592.126 592.297 594.863 593.735 596.596 596.058C597.172 596.817 597.615 597.662 597.925 598.593L624.992 677.796C627.175 684.154 622.441 690.76 615.726 690.76Z" fill="#E19810"/>
</g>
<path d="M485.161 629.445L477.267 627.211C476.304 626.936 475.74 625.933 476.015 624.965L479.098 614.076C479.372 613.108 480.376 612.549 481.343 612.824L489.238 615.059C490.205 615.333 490.764 616.336 490.489 617.304L487.406 628.193C487.132 629.161 486.128 629.72 485.161 629.445Z" fill="#FDD982"/>
<path d="M473.614 670.22L465.72 667.985C464.757 667.711 464.194 666.707 464.468 665.74L473.666 633.262C473.94 632.295 474.944 631.736 475.911 632.005L483.806 634.245C484.768 634.519 485.332 635.523 485.057 636.49L475.859 668.968C475.585 669.93 474.582 670.494 473.614 670.22Z" fill="#FDD982"/>
<path d="M800.555 690.76H634.223C631.72 690.76 629.474 689.829 627.793 688.328C624.932 685.84 623.582 681.743 624.974 677.749L625.129 677.299L652.537 598.546C653.851 594.801 657.379 592.297 661.337 592.297H773.949C776.949 592.297 779.686 593.735 781.419 596.058C781.995 596.817 782.438 597.662 782.748 598.593L809.815 677.796C811.998 684.154 807.265 690.76 800.555 690.76Z" fill="#FFC435"/>
<g opacity="0.6">
<path d="M800.555 690.76H634.223C631.72 690.76 629.474 689.829 627.793 688.328C624.932 685.84 623.582 681.743 624.974 677.749L625.129 677.299C628.191 678.416 632.139 679.467 633.623 679.467H787.373C793.84 679.467 798.372 673.078 796.282 666.952L773.317 594.34C773.097 593.675 772.807 593.056 772.448 592.483C772.836 592.406 773.224 592.328 773.581 592.297H773.949C776.949 592.297 779.686 593.735 781.419 596.058C781.995 596.817 782.438 597.662 782.748 598.593L809.815 677.796C811.998 684.154 807.265 690.76 800.555 690.76Z" fill="#E19810"/>
</g>
<path d="M669.983 629.445L662.094 627.211C661.127 626.936 660.563 625.933 660.837 624.965L663.92 614.076C664.194 613.108 665.203 612.549 666.165 612.824L674.06 615.059C675.027 615.333 675.586 616.336 675.317 617.304L672.228 628.193C671.954 629.161 670.951 629.72 669.983 629.445Z" fill="#FDD982"/>
<path d="M658.436 670.22L650.542 667.985C649.58 667.711 649.016 666.707 649.29 665.74L658.488 633.262C658.762 632.295 659.766 631.736 660.733 632.005L668.628 634.245C669.595 634.519 670.154 635.523 669.88 636.49L660.682 668.968C660.407 669.93 659.404 670.494 658.436 670.22Z" fill="#FDD982"/>
<path d="M615.726 494.584H449.4C446.896 494.584 444.651 493.653 442.965 492.153C440.104 489.664 438.759 485.567 440.15 481.573L440.306 481.128L467.714 402.37C469.028 398.63 472.556 396.121 476.513 396.121H589.125C592.126 396.121 594.863 397.559 596.596 399.882C597.172 400.641 597.615 401.486 597.925 402.417L624.992 481.62C627.175 487.978 622.441 494.584 615.726 494.584Z" fill="#FFC435"/>
<g opacity="0.6">
<path d="M615.726 494.584H449.4C446.896 494.584 444.651 493.653 442.965 492.153C440.104 489.664 438.759 485.567 440.15 481.573L440.306 481.128C443.368 482.241 447.315 483.291 448.8 483.291H602.55C609.017 483.291 613.548 476.902 611.458 470.777L588.494 398.165C588.273 397.499 587.984 396.88 587.625 396.307C588.013 396.23 588.401 396.152 588.753 396.121H589.125C592.126 396.121 594.863 397.559 596.596 399.882C597.172 400.641 597.615 401.486 597.925 402.417L624.992 481.62C627.175 487.978 622.441 494.584 615.726 494.584Z" fill="#E19810"/>
</g>
<path d="M485.161 433.281L477.267 431.046C476.304 430.772 475.74 429.769 476.015 428.801L479.098 417.912C479.372 416.944 480.376 416.385 481.343 416.66L489.238 418.894C490.205 419.169 490.764 420.172 490.489 421.14L487.406 432.029C487.132 432.997 486.128 433.555 485.161 433.281Z" fill="#FDD982"/>
<path d="M473.614 474.053L465.72 471.818C464.757 471.544 464.194 470.54 464.468 469.573L473.666 437.095C473.94 436.128 474.944 435.569 475.911 435.843L483.806 438.078C484.768 438.352 485.332 439.356 485.057 440.323L475.859 472.801C475.585 473.763 474.582 474.327 473.614 474.053Z" fill="#FDD982"/>
<path d="M523.32 592.444H356.994C354.485 592.444 352.245 591.512 350.558 590.012C347.698 587.524 346.353 583.427 347.744 579.433L347.899 578.988L375.307 500.23C376.621 496.484 380.144 493.98 384.107 493.98H496.719C499.72 493.98 502.456 495.419 504.189 497.741C504.762 498.5 505.205 499.345 505.519 500.276L532.585 579.479C534.763 585.837 530.035 592.444 523.32 592.444Z" fill="#FFC435"/>
<g opacity="0.6">
<path d="M523.32 592.444H356.994C354.485 592.444 352.245 591.512 350.558 590.012C347.698 587.524 346.353 583.427 347.744 579.433L347.899 578.988C350.962 580.1 354.904 581.15 356.389 581.15H510.144C516.605 581.15 521.137 574.761 519.052 568.636L496.083 496.024C495.866 495.358 495.578 494.739 495.219 494.167C495.602 494.089 495.99 494.012 496.347 493.98H496.719C499.72 493.98 502.456 495.419 504.189 497.741C504.762 498.5 505.205 499.345 505.519 500.276L532.585 579.479C534.763 585.837 530.035 592.444 523.32 592.444Z" fill="#E19810"/>
</g>
<path d="M392.747 531.133L384.853 528.898C383.885 528.624 383.327 527.62 383.601 526.653L386.684 515.763C386.958 514.796 387.962 514.237 388.929 514.511L396.824 516.746C397.786 517.02 398.35 518.024 398.076 518.991L394.993 529.881C394.718 530.848 393.715 531.407 392.747 531.133Z" fill="#FDD982"/>
<path d="M381.204 571.912L373.31 569.677C372.343 569.403 371.784 568.4 372.058 567.432L381.251 534.954C381.525 533.987 382.534 533.428 383.496 533.703L391.391 535.937C392.358 536.212 392.922 537.215 392.648 538.183L383.45 570.66C383.175 571.623 382.172 572.187 381.204 571.912Z" fill="#FDD982"/>
<path d="M708.144 592.444H541.818C539.309 592.444 537.069 591.512 535.383 590.012C532.522 587.524 531.177 583.427 532.568 579.433L532.724 578.988L560.126 500.23C561.446 496.484 564.969 493.98 568.931 493.98H681.543C684.544 493.98 687.281 495.419 689.014 497.741C689.586 498.5 690.029 499.345 690.343 500.276L717.41 579.479C719.588 585.837 714.854 592.444 708.144 592.444Z" fill="#FFC435"/>
<g opacity="0.6">
<path d="M708.144 592.444H541.818C539.309 592.444 537.069 591.512 535.383 590.012C532.522 587.524 531.177 583.427 532.568 579.433L532.724 578.988C535.786 580.1 539.728 581.15 541.213 581.15H694.968C701.429 581.15 705.961 574.761 703.876 568.636L680.907 496.024C680.686 495.358 680.398 494.739 680.043 494.167C680.426 494.089 680.814 494.012 681.171 493.98H681.543C684.544 493.98 687.281 495.419 689.014 497.741C689.586 498.5 690.029 499.345 690.343 500.276L717.41 579.479C719.588 585.837 714.854 592.444 708.144 592.444Z" fill="#E19810"/>
</g>
<path d="M577.576 531.133L569.682 528.898C568.715 528.624 568.156 527.62 568.425 526.653L571.513 515.763C571.788 514.796 572.791 514.237 573.759 514.511L581.653 516.746C582.615 517.02 583.179 518.024 582.905 518.991L579.822 529.881C579.547 530.848 578.539 531.407 577.576 531.133Z" fill="#FDD982"/>
<path d="M566.026 571.912L558.131 569.677C557.164 569.403 556.605 568.4 556.874 567.432L566.072 534.954C566.346 533.987 567.35 533.428 568.317 533.703L576.212 535.937C577.179 536.212 577.738 537.215 577.469 538.183L568.271 570.66C567.997 571.623 566.988 572.187 566.026 571.912Z" fill="#FDD982"/>
<path d="M419.635 591.001C420.111 589.315 415.874 586.594 409.728 584.431C411.11 578.068 411.016 573.029 409.33 572.548C407.649 572.072 404.922 576.314 402.76 582.455C396.397 581.074 391.358 581.172 390.882 582.858C390.406 584.54 394.648 587.261 400.789 589.423C399.408 595.786 399.506 600.825 401.187 601.306C402.874 601.782 405.595 597.54 407.757 591.4C414.12 592.781 419.159 592.683 419.635 591.001Z" fill="white"/>
<path d="M674.899 593.105C675.375 591.424 671.138 588.698 664.992 586.535C666.373 580.172 666.28 575.133 664.594 574.658C662.912 574.182 660.186 578.419 658.024 584.564C651.66 583.183 646.622 583.276 646.146 584.963C645.67 586.649 649.912 589.37 656.053 591.533C654.671 597.896 654.77 602.935 656.451 603.411C658.137 603.887 660.859 599.65 663.021 593.504C669.384 594.885 674.423 594.792 674.899 593.105Z" fill="white"/>
<path d="M834.517 690.092C834.517 690.485 834.238 690.805 833.902 690.805L800.575 690.821L264.618 691.095L236.967 691.111C236.626 691.111 236.352 690.79 236.352 690.392C236.352 690.004 236.626 689.683 236.967 689.683L264.298 689.673L800.896 689.398L833.902 689.383C834.238 689.383 834.517 689.698 834.517 690.092Z" fill="#182C42"/>
<g filter="url(#filter0_d_715_3)">
<circle cx="737.028" cy="415.35" r="75.4437" fill="#DEF9E8"/>
</g>
<path d="M781.273 388.17L781.341 412.996C781.343 413.819 781.018 414.609 780.438 415.193C779.858 415.776 779.069 416.105 778.246 416.107C777.423 416.11 776.633 415.785 776.049 415.205C775.466 414.624 775.137 413.836 775.134 413.013L775.087 395.677L743.234 427.709C742.947 427.998 742.605 428.228 742.229 428.385C741.852 428.543 741.449 428.624 741.041 428.625C740.633 428.626 740.229 428.547 739.852 428.392C739.475 428.237 739.132 428.009 738.843 427.721L725.486 414.433L699.822 440.241C699.242 440.825 698.453 441.154 697.629 441.157C696.806 441.159 696.015 440.834 695.431 440.253C694.847 439.673 694.518 438.884 694.516 438.06C694.514 437.237 694.839 436.446 695.419 435.862L723.272 407.856C723.559 407.567 723.901 407.337 724.277 407.18C724.654 407.023 725.057 406.941 725.465 406.94C725.873 406.939 726.277 407.018 726.654 407.173C727.031 407.328 727.374 407.556 727.663 407.844L741.02 421.132L770.688 391.302L753.352 391.349C752.529 391.352 751.739 391.027 751.155 390.447C750.572 389.866 750.242 389.078 750.24 388.255C750.238 387.432 750.563 386.641 751.143 386.058C751.723 385.474 752.512 385.145 753.335 385.143L778.161 385.075C778.984 385.073 779.774 385.397 780.358 385.978C780.941 386.558 781.271 387.346 781.273 388.17Z" fill="#16A34A"/>
<g filter="url(#filter1_d_715_3)">
<circle cx="299.546" cy="497.546" r="55.5464" fill="#FFDDDD"/>
</g>
<path d="M268.256 518.852L268.206 500.573C268.204 499.967 268.443 499.385 268.87 498.956C269.298 498.526 269.878 498.284 270.484 498.282C271.09 498.28 271.672 498.519 272.102 498.947C272.531 499.374 272.774 499.955 272.775 500.561L272.81 513.324L296.262 489.74C296.474 489.527 296.725 489.358 297.002 489.242C297.279 489.126 297.577 489.066 297.877 489.066C298.177 489.065 298.475 489.123 298.752 489.237C299.03 489.352 299.282 489.519 299.495 489.731L309.33 499.515L328.225 480.513C328.652 480.083 329.233 479.841 329.839 479.839C330.446 479.837 331.028 480.077 331.458 480.504C331.888 480.932 332.13 481.513 332.132 482.119C332.133 482.725 331.894 483.307 331.467 483.737L310.96 504.357C310.748 504.57 310.496 504.739 310.219 504.855C309.942 504.971 309.645 505.031 309.345 505.032C309.045 505.032 308.747 504.974 308.469 504.86C308.192 504.746 307.939 504.578 307.727 504.366L297.892 494.582L276.049 516.545L288.813 516.51C289.419 516.509 290.001 516.748 290.43 517.175C290.86 517.603 291.102 518.183 291.104 518.789C291.106 519.395 290.866 519.977 290.439 520.406C290.012 520.836 289.431 521.078 288.825 521.08L270.547 521.13C269.941 521.132 269.359 520.893 268.929 520.465C268.5 520.038 268.257 519.458 268.256 518.852Z" fill="#FC0606"/>
<defs>
<filter id="filter0_d_715_3" x="661.584" y="339.906" width="154.203" height="154.203" filterUnits="userSpaceOnUse" color-interpolation-filters="sRGB">
<feFlood flood-opacity="0" result="BackgroundImageFix"/>
<feColorMatrix in="SourceAlpha" type="matrix" values="0 0 0 0 0 0 0 0 0 0 0 0 0 0 0 0 0 0 127 0" result="hardAlpha"/>
<feOffset dx="3.31621" dy="3.31621"/>
<feComposite in2="hardAlpha" operator="out"/>
<feColorMatrix type="matrix" values="0 0 0 0 0 0 0 0 0 0 0 0 0 0 0 0 0 0 0.05 0"/>
<feBlend mode="normal" in2="BackgroundImageFix" result="effect1_dropShadow_715_3"/>
<feBlend mode="normal" in="SourceGraphic" in2="effect1_dropShadow_715_3" result="shape"/>
</filter>
<filter id="filter1_d_715_3" x="244" y="442" width="113.535" height="113.535" filterUnits="userSpaceOnUse" color-interpolation-filters="sRGB">
<feFlood flood-opacity="0" result="BackgroundImageFix"/>
<feColorMatrix in="SourceAlpha" type="matrix" values="0 0 0 0 0 0 0 0 0 0 0 0 0 0 0 0 0 0 127 0" result="hardAlpha"/>
<feOffset dx="2.4416" dy="2.4416"/>
<feComposite in2="hardAlpha" operator="out"/>
<feColorMatrix type="matrix" values="0 0 0 0 0 0 0 0 0 0 0 0 0 0 0 0 0 0 0.05 0"/>
<feBlend mode="normal" in2="BackgroundImageFix" result="effect1_dropShadow_715_3"/>
<feBlend mode="normal" in="SourceGraphic" in2="effect1_dropShadow_715_3" result="shape"/>
</filter>
</defs>
</svg>
