<svg id="Layer_1" enable-background="new 0 0 468 468" viewBox="0 0 468 468" xmlns="http://www.w3.org/2000/svg" xmlns:xlink="http://www.w3.org/1999/xlink"><linearGradient id="lg1"><stop offset="0" stop-color="#fff"/><stop offset="0" stop-color="#fab900"/><stop offset="1" stop-color="#fa9900"/></linearGradient><linearGradient id="SVGID_1_" gradientUnits="userSpaceOnUse" x1="7.004" x2="460.937" xlink:href="#lg1" y1="232.49" y2="232.49"/><linearGradient id="lg2"><stop offset="0" stop-color="#fff"/><stop offset="0" stop-color="#faf400"/><stop offset="1" stop-color="#fad500"/></linearGradient><linearGradient id="SVGID_2_" gradientUnits="userSpaceOnUse" x1="14.034" x2="453.907" xlink:href="#lg2" y1="238.486" y2="238.486"/><linearGradient id="SVGID_3_" gradientUnits="userSpaceOnUse" x1="0" x2="199.497" xlink:href="#lg1" y1="371.991" y2="371.991"/><linearGradient id="SVGID_4_" gradientUnits="userSpaceOnUse" x1="3.98" x2="195.48" xlink:href="#lg2" y1="373.992" y2="373.992"/><linearGradient id="SVGID_5_" gradientUnits="userSpaceOnUse" x1="42.73" x2="104.213" xlink:href="#lg1" y1="338.229" y2="338.229"/><linearGradient id="SVGID_6_" gradientUnits="userSpaceOnUse" x1="14.348" x2="88.679" xlink:href="#lg1" y1="362.009" y2="362.009"/><linearGradient id="SVGID_7_" gradientUnits="userSpaceOnUse" x1="29.902" x2="73.146" xlink:href="#lg1" y1="397.395" y2="397.395"/><linearGradient id="SVGID_8_" gradientTransform="matrix(-1 0 0 1 199.531 0)" gradientUnits="userSpaceOnUse" x1="-268.469" x2="-68.972" xlink:href="#lg1" y1="371.991" y2="371.991"/><linearGradient id="SVGID_9_" gradientTransform="matrix(-1 0 0 1 199.531 0)" gradientUnits="userSpaceOnUse" x1="-264.489" x2="-72.989" xlink:href="#lg2" y1="373.992" y2="373.992"/><linearGradient id="SVGID_10_" gradientTransform="matrix(-1 0 0 1 199.531 0)" gradientUnits="userSpaceOnUse" x1="-225.739" x2="-164.257" xlink:href="#lg1" y1="338.229" y2="338.229"/><linearGradient id="SVGID_11_" gradientTransform="matrix(-1 0 0 1 199.531 0)" gradientUnits="userSpaceOnUse" x1="-254.121" x2="-179.791" xlink:href="#lg1" y1="362.009" y2="362.009"/><linearGradient id="SVGID_12_" gradientTransform="matrix(-1 0 0 1 199.531 0)" gradientUnits="userSpaceOnUse" x1="-238.567" x2="-195.324" xlink:href="#lg1" y1="397.395" y2="397.395"/><g><g><ellipse cx="233.97" cy="232.49" fill="url(#SVGID_1_)" rx="226.966" ry="226.49"/><ellipse cx="233.97" cy="238.486" fill="url(#SVGID_2_)" rx="219.936" ry="219.475"/><g fill="#333"><path d="m159.302 228.397c17.433 24.941 44.5 41.12 75.418 40.821 30.468-.296 56.821-16.4 74.022-40.977 2.4-3.419 7.118-4.246 10.538-1.847 2.909 2.041 3.938 5.765 2.704 8.935-22.337 57.388-98.228 74.719-146.221 38.749-13.172-9.872-23.804-23.385-29.814-38.749-1.521-3.89.399-8.276 4.289-9.798 3.318-1.297 6.998-.091 8.953 2.706z"/><path d="m105.267 175.47c-5.173-28.956 18.534-57.357 47.927-57.357s53.1 28.4 47.927 57.357c-.648 3.623-4.11 6.036-7.734 5.389-2.676-.478-4.692-2.491-5.303-4.971-3.943-16.731-16.129-33.685-34.89-33.775-18.806-.09-30.877 17.188-34.891 33.769-.875 3.575-4.483 5.765-8.058 4.89-2.641-.646-4.525-2.789-4.978-5.302z"/><path d="m266.82 175.47c-5.173-28.956 18.534-57.357 47.927-57.357s53.1 28.4 47.927 57.357c-.647 3.623-4.11 6.036-7.734 5.389-2.676-.478-4.692-2.491-5.302-4.971-3.943-16.731-16.129-33.685-34.891-33.775-18.807-.09-30.877 17.188-34.891 33.769-.875 3.575-4.483 5.765-8.058 4.89-2.642-.646-4.526-2.789-4.978-5.302z"/><ellipse cx="93.182" cy="224.35" rx="25.218" ry="25.166"/><ellipse cx="374.759" cy="224.35" rx="25.218" ry="25.166"/></g></g><g><path d="m119.303 462c-13.069 0-26.017-3.433-37.443-9.928l-57.059-32.432c-9.234-5.248-12.824-17.29-7.393-26.549 2.073-3.535 5.23-6.269 8.929-7.895l-16.391-9.316c-9.234-5.248-12.824-17.29-7.393-26.549 2.42-4.128 6.321-7.164 10.835-8.619-4.643-6.083-5.265-14.7-1.38-21.323 5.419-9.24 17.733-12.16 26.922-6.936l4.351 2.473c-.45-4.042.404-8.096 2.495-11.661 5.418-9.238 17.733-12.16 26.921-6.936l41.066 23.341c-8.532-12.8-2.795-30.506 11.48-36.018 10.122-3.909 21.943-.778 28.811 7.593l27.03 32.945c21.099 25.717 24.612 62.782 7.699 91.622l-6.146 10.481c-12.917 22.023-37.187 35.707-63.334 35.707 0 0 .002 0 0 0z" fill="url(#SVGID_3_)"/><path d="m126.698 289.419c-11.932 4.873-16.847 19.431-9.421 30.264l9.693 14.141-56.27-31.984c-7.553-4.293-17.152-1.843-21.442 5.471-4.29 7.315-1.644 16.724 5.908 21.017l-18.233-10.364c-7.309-4.154-17.13-1.882-21.442 5.471-4.29 7.314-1.644 16.724 5.908 21.017l6.078 3.455c-7.553-4.293-17.152-1.843-21.442 5.471-4.29 7.315-1.644 16.724 5.908 21.017l30.389 17.273c-7.553-4.293-17.152-1.843-21.442 5.471-4.294 7.347-1.394 16.866 5.908 21.017l57.058 32.432c33.567 19.079 76.233 8.193 95.298-24.316l6.146-10.481c16.081-27.421 12.722-62.588-7.338-87.037l-27.03-32.945c-5.825-7.099-15.673-9.696-24.234-6.39z" fill="url(#SVGID_4_)"/><path d="m103.212 356.637c-.172 0-.346-.044-.504-.137l-59.482-34.816c-.477-.279-.637-.892-.358-1.368.279-.477.894-.637 1.368-.357l59.482 34.816c.477.279.637.892.358 1.368-.187.317-.521.494-.864.494z" fill="url(#SVGID_5_)"/><path d="m87.677 383.125c-.165 0-.332-.041-.486-.126l-72.389-40.353c-.839-1.232-.514-1.814.975-1.747l72.389 40.353c.482.269.655.878.386 1.36-.183.328-.524.513-.875.513z" fill="url(#SVGID_6_)"/><path d="m72.144 409.613c-.161 0-.325-.039-.477-.122l-41.243-22.435c-.485-.264-.665-.871-.4-1.356.263-.484.871-.664 1.356-.4l41.243 22.435c.485.264.665.871.401 1.356-.182.333-.525.522-.88.522z" fill="url(#SVGID_7_)"/></g><g><path d="m348.697 462c13.069 0 26.017-3.433 37.443-9.928l57.059-32.432c9.234-5.248 12.824-17.29 7.393-26.549-2.073-3.535-5.23-6.269-8.929-7.895l16.391-9.317c9.234-5.248 12.824-17.29 7.393-26.549-2.42-4.128-6.321-7.164-10.835-8.619 4.643-6.083 5.264-14.7 1.38-21.323-5.419-9.24-17.733-12.16-26.922-6.936l-4.351 2.473c.45-4.042-.404-8.096-2.495-11.661-5.418-9.238-17.733-12.16-26.921-6.936l-41.066 23.341c8.532-12.8 2.795-30.506-11.48-36.018-10.122-3.909-21.943-.778-28.811 7.593l-27.03 32.945c-21.099 25.717-24.612 62.782-7.699 91.622l6.146 10.481c12.917 22.024 37.187 35.708 63.333 35.708z" fill="url(#SVGID_8_)"/><path d="m341.302 289.419c11.932 4.873 16.847 19.431 9.421 30.264l-9.693 14.141 56.27-31.984c7.553-4.293 17.152-1.843 21.442 5.471 4.29 7.315 1.644 16.724-5.908 21.017l18.233-10.364c7.309-4.154 17.13-1.882 21.442 5.471 4.29 7.314 1.644 16.724-5.908 21.017l-6.078 3.455c7.553-4.293 17.152-1.843 21.442 5.471 4.29 7.315 1.644 16.724-5.908 21.017l-30.389 17.273c7.553-4.293 17.152-1.843 21.442 5.471 4.294 7.347 1.394 16.866-5.908 21.017l-57.058 32.432c-33.567 19.079-76.233 8.193-95.298-24.316l-6.146-10.482c-16.081-27.421-12.722-62.588 7.339-87.037l27.03-32.945c5.824-7.098 15.672-9.695 24.233-6.389z" fill="url(#SVGID_9_)"/><path d="m364.788 356.637c.172 0 .346-.044.504-.137l59.482-34.816c.477-.279.637-.892.358-1.368-.279-.477-.894-.637-1.368-.357l-59.482 34.816c-.477.279-.637.892-.358 1.368.187.317.521.494.864.494z" fill="url(#SVGID_10_)"/><path d="m380.323 383.125c.165 0 .332-.041.486-.126l72.389-40.353c.839-1.232.514-1.814-.975-1.747l-72.389 40.353c-.482.269-.655.878-.386 1.36.183.328.524.513.875.513z" fill="url(#SVGID_11_)"/><path d="m395.856 409.613c.161 0 .325-.039.477-.122l41.243-22.435c.485-.264.665-.871.4-1.356-.263-.484-.871-.664-1.356-.4l-41.243 22.435c-.485.264-.665.871-.401 1.356.182.333.525.522.88.522z" fill="url(#SVGID_12_)"/></g></g><g/><g/><g/><g/><g/><g/><g/><g/><g/><g/><g/><g/><g/><g/><g/></svg>