<svg width="48" height="48" viewBox="0 0 48 48" fill="none" xmlns="http://www.w3.org/2000/svg">
<path d="M35 14H25V8.837C26.442 8.405 27.5 7.083 27.5 5.5C27.5 3.567 25.933 2 24 2C22.067 2 20.5 3.567 20.5 5.5C20.5 7.083 21.558 8.405 23 8.837V14H13C9.686 14 7 16.686 7 20V39C7 42.314 9.686 45 13 45H35C38.314 45 41 42.314 41 39V20C41 16.686 38.314 14 35 14ZM14 25.5C14 23.567 15.567 22 17.5 22C19.433 22 21 23.567 21 25.5C21 27.433 19.433 29 17.5 29C15.567 29 14 27.433 14 25.5ZM30.457 36.449C28.482 37.464 26.249 38 24 38C21.751 38 19.518 37.464 17.543 36.449C17.052 36.196 16.858 35.594 17.11 35.102C17.362 34.612 17.964 34.417 18.457 34.669C21.892 36.435 26.108 36.435 29.543 34.669C30.034 34.417 30.637 34.611 30.89 35.102C31.142 35.593 30.949 36.196 30.457 36.449ZM30.5 29C28.567 29 27 27.433 27 25.5C27 23.567 28.567 22 30.5 22C32.433 22 34 23.567 34 25.5C34 27.433 32.433 29 30.5 29Z" fill="#C9910A"/>
<path d="M30.5 27C31.3284 27 32 26.3284 32 25.5C32 24.6716 31.3284 24 30.5 24C29.6716 24 29 24.6716 29 25.5C29 26.3284 29.6716 27 30.5 27Z" fill="#C9910A"/>
<path d="M17.5 27C18.3284 27 19 26.3284 19 25.5C19 24.6716 18.3284 24 17.5 24C16.6716 24 16 24.6716 16 25.5C16 26.3284 16.6716 27 17.5 27Z" fill="#C9910A"/>
<path d="M44 23H43V36H44C45.657 36 47 34.657 47 33V26C47 24.343 45.657 23 44 23Z" fill="#C9910A"/>
<path d="M5 23H4C2.343 23 1 24.343 1 26V33C1 34.657 2.343 36 4 36H5V23Z" fill="#C9910A"/>
</svg>
