<svg xmlns="http://www.w3.org/2000/svg" version="1.1" xmlns:xlink="http://www.w3.org/1999/xlink" width="512" height="512" x="0" y="0" viewBox="0 0 64 64" style="enable-background:new 0 0 512 512" xml:space="preserve" class=""><g><linearGradient id="a"><stop offset="0" stop-color="#29abe2"></stop><stop offset="1" stop-color="#009245"></stop></linearGradient><linearGradient xlink:href="#a" id="c" x1="-3.319" x2="48.733" y1="13.375" y2="13.375" gradientUnits="userSpaceOnUse"></linearGradient><linearGradient xlink:href="#a" id="d" x1="-3.319" x2="48.733" y1="13.376" y2="13.376" gradientUnits="userSpaceOnUse"></linearGradient><linearGradient xlink:href="#a" id="e" x1="-3.319" x2="48.733" y1="48.876" y2="48.876" gradientUnits="userSpaceOnUse"></linearGradient><linearGradient xlink:href="#a" id="f" x1="-3.319" x2="48.733" y1="56.001" y2="56.001" gradientUnits="userSpaceOnUse"></linearGradient><linearGradient xlink:href="#a" id="g" x1="-3.319" x2="48.733" y1="37.376" y2="37.376" gradientUnits="userSpaceOnUse"></linearGradient><linearGradient xlink:href="#a" id="h" x1="-3.319" x2="48.733" y1="25.876" y2="25.876" gradientUnits="userSpaceOnUse"></linearGradient><linearGradient xlink:href="#a" id="i" x1="-16.558" x2="85.939" y1="15.655" y2="10.84" gradientUnits="userSpaceOnUse"></linearGradient><linearGradient xlink:href="#a" id="j" x1="-15.655" x2="86.842" y1="34.872" y2="30.057" gradientUnits="userSpaceOnUse"></linearGradient><linearGradient id="b"><stop offset=".003" stop-color="#f0fff4"></stop><stop offset="1" stop-color="#c3ffe8"></stop></linearGradient><linearGradient xlink:href="#b" id="k" x1="0" x2="64" y1="32" y2="32" gradientUnits="userSpaceOnUse"></linearGradient><linearGradient xlink:href="#b" id="l" x1="4" x2="60" y1="32" y2="32" gradientUnits="userSpaceOnUse"></linearGradient><path d="M7.32 21.99h49.36c3.55.02 4.6-4.99 1.31-6.38L33.31 5.03a3.4 3.4 0 0 0-2.62 0L6.01 15.61C2.74 16.99 3.75 22 7.32 21.99zM32 9.88c4.62.12 4.61 6.88 0 7-4.62-.12-4.61-6.88 0-7z" fill="#c9910a" opacity="1" data-original="#000000"></path><path d="M33.5 13.38c-.03-1.97-2.97-1.97-3 0 .04 1.97 2.96 1.97 3 0zM7.86 47.99v2.78h48.28v-2.78c0-.55-.44-1-1-1H8.86c-.56 0-1 .45-1 1zM59 52.77H5c-.55 0-1 .45-1 1v4.47c0 .55.45 1 1 1h54c.55 0 1-.45 1-1v-4.47c0-.55-.45-1-1-1zM9.85 29.77h6.24v15.22H9.85zM22.58 29.77h6.24v15.22h-6.24zM35.3 29.77h6.23v15.22H35.3zM48.02 29.77h6.24v15.22h-6.24zM56.14 23.99H7.86v2.78c0 .56.44 1 1 1h46.28c.56 0 1-.44 1-1z" fill="#c9910a" opacity="1" data-original="#000000"></path></g></svg>