<svg xmlns="http://www.w3.org/2000/svg" version="1.1" xmlns:xlink="http://www.w3.org/1999/xlink" width="512" height="512" x="0" y="0" viewBox="0 0 32 32" style="enable-background:new 0 0 512 512" xml:space="preserve" class=""><g><path d="m16.88 25.626 1.281 3.973c.13.42.65.55.96.24 1.93-1.93 5.13-5.18 5.35-6.96.104-.762-.174-1.776-.485-2.672-1.87 1.901-4.199 3.747-7.106 5.419zM11.793 8.014c-.895-.311-1.91-.589-2.672-.485-1.78.22-5.03 3.42-6.96 5.35-.31.31-.18.83.24.96l3.973 1.28c1.672-2.906 3.518-5.235 5.419-7.105zM9.262 27.172c-2.766 1.586-5.99 1.597-6.03 1.597 0-.041.01-3.264 1.597-6.03zM21.457 8.566c-.528 0-1.024.206-1.397.579-.374.374-.58.87-.58 1.398s.206 1.025.58 1.398c.745.748 2.048.748 2.795 0a1.98 1.98 0 0 0-1.398-3.375z" fill="#ffffff" opacity="1" data-original="#000000"></path><path d="M28.742 1.99c-3.76.071-15.236 1.559-22.392 16.38-.23.476-.13 1.049.244 1.422l5.613 5.613c.374.374.946.474 1.422.244C28.451 18.494 29.939 7.018 30.01 3.258a1.24 1.24 0 0 0-1.268-1.268zm-4.614 11.224c-.714.713-1.662 1.106-2.671 1.106s-1.958-.393-2.671-1.106-1.106-1.662-1.106-2.671.394-1.958 1.106-2.671c1.426-1.426 3.914-1.426 5.342 0a3.783 3.783 0 0 1 0 5.342z" fill="#ffffff" opacity="1" data-original="#000000"></path></g></svg>