<svg xmlns="http://www.w3.org/2000/svg" version="1.1" xmlns:xlink="http://www.w3.org/1999/xlink" width="512" height="512" x="0" y="0" viewBox="0 0 30 30" style="enable-background:new 0 0 512 512" xml:space="preserve" class=""><g><path d="M22 19a5 5 0 0 0-4-4.9V8h2a1 1 0 0 0 0-2h-2V4a1 1 0 0 0-2 0v2h-2V4a1 1 0 0 0-2 0v2.1a5 5 0 0 0 0 9.8V22H9a1 1 0 0 0 0 2h3v2a1 1 0 0 0 2 0v-2h2v2a1 1 0 0 0 2 0v-2.1a5 5 0 0 0 4-4.9zM16 8v6h-2V8zm-6 3a3 3 0 0 1 2-2.82v5.64A3 3 0 0 1 10 11zm4 11v-6h2v6zm4-.18v-5.64a3 3 0 0 1 0 5.64z" fill="#c9910a" opacity="1" data-original="#000000"></path></g></svg>