<svg xmlns="http://www.w3.org/2000/svg" version="1.1" xmlns:xlink="http://www.w3.org/1999/xlink" width="512" height="512" x="0" y="0" viewBox="0 0 48 48" style="enable-background:new 0 0 512 512" xml:space="preserve" fill-rule="evenodd" class=""><g><path d="M25 40v2a.997.997 0 0 1-1 1H4a.997.997 0 0 1-1-1v-2a.997.997 0 0 1 1-1h20a.997.997 0 0 1 1 1zM25 33.999v2a1 1 0 0 1-1 1H4a1 1 0 0 1-1-1v-2a1 1 0 0 1 1-1h20a1.002 1.002 0 0 1 1 1zM3.293 27.293l14-14a.999.999 0 0 1 1.414 0L26 20.586 34.586 12l-3.293-3.293a.998.998 0 0 1 .543-1.693l12-2a1 1 0 0 1 1.15 1.15l-2 12a.998.998 0 0 1-1.693.543L38 15.414 26.707 26.707a.999.999 0 0 1-1.414 0L18 19.414 6.707 30.707a.999.999 0 0 1-1.414 0l-2-2a.999.999 0 0 1 0-1.414zM36 25c4.967 0 9 4.033 9 9s-4.033 9-9 9-9-4.033-9-9 4.033-9 9-9zm-1 4h-1a3 3 0 1 0 0 6h4a1 1 0 0 1 0 2h-4c-.552 0-1-.448-1-1a1 1 0 0 0-2 0 3 3 0 0 0 3 3h1v1a1 1 0 0 0 2 0v-1h1a3 3 0 1 0 0-6h-4a1 1 0 0 1 0-2h4c.552 0 1 .448 1 1a1 1 0 0 0 2 0 3 3 0 0 0-3-3h-1v-1a1 1 0 0 0-2 0z" fill="#c9910a" opacity="1" data-original="#000000" class=""></path></g></svg>