<svg xmlns="http://www.w3.org/2000/svg" version="1.1" xmlns:xlink="http://www.w3.org/1999/xlink" width="512" height="512" x="0" y="0" viewBox="0 0 32 32" style="enable-background:new 0 0 512 512" xml:space="preserve" fill-rule="evenodd" class=""><g><path d="M13.889 15.777c-2.699-.528-5.824-1.955-8.327-3.836-2.194-1.649-3.897-3.648-4.517-5.645a1 1 0 1 1 1.91-.592c.514 1.657 1.987 3.269 3.809 4.638C9.595 12.47 13.302 14 16 14s6.405-1.53 9.236-3.658c1.822-1.369 3.295-2.981 3.809-4.638a1 1 0 1 1 1.91.592c-.62 1.997-2.323 3.996-4.517 5.645-2.503 1.881-5.628 3.308-8.327 3.836l1.818 1.924a1.994 1.994 0 0 1 .391 2.148l-2.486 5.925a2.002 2.002 0 0 1-3.691-.005l-2.466-5.924a1.991 1.991 0 0 1-.146-.941c.038-.441.222-.867.539-1.201zM17.46 18 16 16.456 14.54 18z" fill="#c9910a" opacity="1" data-original="#000000"></path></g></svg>