<svg xmlns="http://www.w3.org/2000/svg" xml:space="preserve" viewBox="0 0 24 24" enable-background="new 0 0 24 24" id="API">
  <g id="Layer_2" fill="#ffffff" class="color000000 svgShape">
    <g fill="#ffffff" class="color000000 svgShape">
      <path d="M14.45459,4c-3.391602,0-6.342285,2.272461-7.251953,5.432617C7.075684,9.421875,6.947754,9.416992,6.818359,9.416992
			C4.161621,9.416992,2,11.566406,2,14.208008c0,1.199219,0.44873,2.34668,1.263184,3.231445
			c0.197266,0.214844,0.466309,0.323242,0.736328,0.323242c0.241699,0,0.484375-0.086914,0.676758-0.264648
			c0.40625-0.373047,0.432617-1.005859,0.058594-1.412109C4.260742,15.570312,4,14.904297,4,14.208008
			c0-1.539062,1.26416-2.791016,2.818359-2.791016c0.288086,0,0.565918,0.043945,0.850586,0.135742
			c0.282715,0.09082,0.588379,0.051758,0.837891-0.105469c0.250488-0.157227,0.417969-0.416992,0.458496-0.709961
			C9.337891,8.036133,11.697754,6,14.45459,6C17.512207,6,20,8.467773,20,11.5c0,1.052734-0.30127,2.075195-0.871582,2.958008
			c-0.299805,0.463867-0.166504,1.083008,0.297363,1.382812c0.462891,0.299805,1.083496,0.166992,1.382324-0.296875
			C21.587891,14.336914,22,12.938477,22,11.5C22,7.364258,18.615234,4,14.45459,4z" fill="#ffffff" class="color000000 svgShape"></path>
      <path d="M15.746094,15.420898L13,14.322754V12c0-0.552734-0.447754-1-1-1s-1,0.447266-1,1v2.322998l-2.753906,1.10376
			c-1.368164,0.547852-2.251953,1.854492-2.251953,3.328125V21c0,0.552734,0.447754,1,1,1s1-0.447266,1-1v-2.245117
			c0-0.651367,0.390625-1.229492,0.995605-1.470703L11,16.478271V19c0,0.552734,0.447754,1,1,1s1-0.447266,1-1v-2.523071
			l2.003418,0.801392C15.608887,17.520508,16,18.097656,16,18.75V21c0,0.552734,0.447754,1,1,1s1-0.447266,1-1v-2.25
			C18,17.275391,17.115234,15.96875,15.746094,15.420898z" fill="#ffffff" class="color000000 svgShape"></path>
    </g>
  </g>
</svg>
