<svg id="Layer_1" enable-background="new 0 0 512 512" height="512" viewBox="0 0 512 512" width="512" xmlns="http://www.w3.org/2000/svg"><g id="Layer_2_00000140736130153921798300000016668462501025497243_"><g id="trend_up"><path d="m31.7 400c-5.1 0-10-1.2-14.5-3.5-12.1-5.9-19-18.7-16.8-31.1 1.5-8.3 5.2-16.1 9.9-21 49.9-50.7 100-100.6 138-138.3 6.8-6.7 14.9-10.3 23.3-10.3 8.8 0 17.3 3.8 24.6 11.1l86 86 117-117.1-11.8-.1c-15-.1-35.6-.2-47.4-.3-18.6-.2-31.6-13.1-31.7-31.5 0-9 3.1-17.1 8.9-22.9s13.7-8.9 22.5-8.9c23.8-.1 47.5-.1 70.4-.1 23.9 0 47.7.1 70.7.1 17.8.1 30.8 12.8 30.9 30.3.3 48.8.3 96.9 0 143-.1 17.5-13.4 30.2-31.6 30.2h-.4c-18.1-.2-30.9-12.9-31.2-31-.2-14.2-.2-28.6-.1-42.5 0-6.1 0-12.2 0-18.3v-3.6c-.5.4-.9.8-1.3 1.2-39.6 39.7-79.1 79.5-118.7 119.3l-16.5 16.5c-9.8 10-19.1 14.8-28.2 14.8s-18.1-4.7-27.7-14.4l-84.4-84.6-7.1 7c-7.4 7.3-14.3 14.2-21.1 21l-31.8 32c-18.3 18.4-37.2 37.5-55.9 56.2-6.9 7.1-15.2 10.8-24 10.8z"/></g></g></svg>